<?xml version="1.0" encoding="UTF-8"?>
<svg id="Camada_1" xmlns="http://www.w3.org/2000/svg" version="1.1" viewBox="0 0 612 792">
  <!-- Generator: Adobe Illustrator 29.6.1, SVG Export Plug-In . SVG Version: 2.1.1 Build 9)  -->
  <defs>
    <style>
      .st0 {
        fill: #fff;
      }
    </style>
  </defs>
  <path class="st0" d="M467.93,508.71c5.29-7.02,16.92-27.26,27.72-21.68,2.01,1.04,3.81,4.15,4.22,6.33,1.41,7.64-10.36,26.91-12.81,35.69-4.37,15.7,5.37,5.64,10.32-.17,9.43-11.08,10.65-25.81,20.97-35.5,7.39-6.94,19.45-11.58,23.8.8l1.66-.5c1.36-8.79,13.21-6.17,12.92.88-.12,2.84-7.17,16.13-8.74,20.39-2.55,6.94-5.53,14.51-5.04,21.98,2.23.24,3.74-.08,5.61-1.25,3.82-2.39,18.32-21.81,18.56-25.82.16-2.8-1.26-5.51-.58-9.45,1.76-10.21,14.84-16.6,24.45-13.55,9.34,2.96,8.81,14.68-.45,16.98-.38-.42.38-7.18-.17-9.1-1.25-4.36-8.89-3.89-11.03-.08-5.97,10.65,14.89,22.79,9.16,38.2-4.69,12.61-30.41,19.31-28.61.83,9.62,7.37,18.8,2.02,15.58-10.34-.93-3.55-4.52-7.34-6.31-10.62-5.88,10.24-16.99,34.54-31.42,32.2-5.58-.9-7.7-7.95-6.91-12.86-2.13,1.52-2.99,4.09-4.82,6.07-11.91,12.89-23.54,6.43-22.61-10.1-5.84,6.37-14.68,21.52-25.3,16.03-7.96-4.12-3.52-17.23-1.33-23.71,1.24-3.67,11.87-25.61,10.5-27.01-1.23-.29-1.89.28-2.87.75-8.08,3.86-22.94,32.98-25.76,42-1.4,4.46.13,10.68-6.01,8.44-4.55-1.66-6.62-7.36-4.88-11.66-10.81,13.44-31.18,20.38-28.23-4.84-3.83,2.63-6.52,6.78-10.09,9.66-14.47,11.65-34.62,11.13-34.67-11.28-9.08,18-40.68,30.76-43.56,1.61-4.12,7.56-20.24,24.17-28.65,14.13-4.8-5.73-1.78-14.3.42-20.56,1.98-5.63,10.93-21.98,10.92-26.26,0-1.3-.13-1.99-1.25-2.77-6.01-.34-32.52,43.52-30.26,52.42-8.36.6-10.43-6.83-8.07-13.72-8.05,11.32-28.15,24.24-29.04.81-4.85,6.74-15.6,18.91-23.81,9.7-9.11-10.22.99-35.39,8.51-44.78,6.98-8.71,20.9-17.24,26.62-2.84,1.34,1.26,3.49-4.27,4.76-5.3,3.33-2.67,9.83.5,10.41,4.27.47,3.05-5.02,11.61-6.45,15.01-3.78,8.97-8.43,18.81-7.84,28.69,2.05,3.42,11.69-6.98,13.24-8.77,8.68-10.02,9.67-19.55,15.03-30.95,2.15-4.58,4.74-13.36,11.11-9.72,7.96,4.55,1.77,10.24.08,16.47,5.62-6.5,13.32-19.86,23.62-17.58,1.99.44,3.93,2.34,4.67,4.21,4.16,10.59-10.33,30.15-12.6,41.56-.4,2.03-1.1,4.28.87,5.68,3.96.78,16.52-13.49,18.16-17.31,4.3-10.05,4.32-17.37,13.16-25.97,6.63-6.45,21.66-13.02,28.32-3.48,4.44,6.36-.06,21.12-7.18,20.16-8.24-1.12,7.35-21.21-4.7-17.62-7.23,2.16-16.84,25.23-17.43,32.62-1.66,20.77,17.1,10.53,25.32,1.93,12.15-12.71,8.24-31.84,28.64-39.93,16.64-6.6,27.03,5.76,16.79,20.83-5.51,8.1-16.85,13.29-26.48,13.45-3.8,20.68,11.21,17.07,22.59,7.66,14.23-11.77,16.17-26.12,23.01-42.34,4.2-9.97,8.46-20.74,13.14-30.42,1.12-2.32,3.21-7.42,4.6-9.11,3.88-4.7,12.37.53,11.54,5.81-.72,4.6-8.88,18.71-11.31,24.27-6.17,14.15-15.73,34.12-18.98,48.79-.4,1.81-2.62,10.88.62,10.33,2.63-1.12,5.39-2.74,7.59-4.54,12.05-9.82,17.37-34.3,23.44-49.17,1.94-4.75,15.03-35.62,17.32-36.74,4.45-2.2,10.32,3.64,9.5,8.69-.88,5.38-10.04,21.11-12.87,27.48-3.72,8.38-6.95,17.04-10.33,25.56ZM388.87,519.2c8.51-1.27,21.87-14.34,21.03-23-.68-7.07-8.19-.19-10.53,2.45-4.92,5.55-8.57,13.48-10.5,20.55ZM249.85,494.39c-8.89.4-19.82,27.74-19.97,35.7-.06,3.42,1.53,8.41,5.69,6.46s11.33-15.97,13.31-20.59c.98-2.29,6.09-16.01,6.02-17.37-.09-1.81-3.3-4.28-5.06-4.2ZM534.66,494.32c-6.95,1.09-16.59,22.25-18.09,28.75-2.38,10.3-.23,20.19,9.42,8.62,3.11-3.73,5.96-9.4,7.89-13.89,1.06-2.47,6.67-17.75,6.6-19.21-.1-2.09-3.82-4.59-5.83-4.27Z"/>
  <path class="st0" d="M404.99,256.22c.2,1.48-1.67.66-2.46.45-23.87-6.37-46.88-29.35-72.14-36.77-70.01-20.58-132.08,67.5-178.69,106.91-6.71,5.68-17.72,16.65-26.26,8.49-10.28-9.81,7.42-23.08,14.53-29.9,14.99-14.38,31.64-29.31,47.2-43.15,48.08-42.75,114.85-101.23,177.5-45.98,14.16,12.49,24.53,29.56,40.32,39.95Z"/>
  <path class="st0" d="M336.83,368.35c-.92-.11-3.95-2.5-.69.69,5.83,3.69,12.33,2.61,18.84,2.54.2,1.2-1.51,1-2.4,1.2-8.36,1.91-14.43.79-22.6-1.2l7.85,4.65,11.51,2.59-22.58-.81,8.82,3.68,11.33,1.16c-4.92.47-9.85,1.31-14.83.73-4.6-.54-8.2-3.17-12.59-3.94l18.55,11.28c-8.49-.69-15.73-4.95-23.39-8.05l7.82,7.09,10.72,4.19c-9.43,1.15-16.91-2.69-24.19-8.06-1.27,1.39,8.76,9.61,10.73,9.83l7,2.26c-3.76.22-7.05.07-10.66-1.02-3.91-1.18-7.27-4.11-11.12-5.41,1.44,1.96,3.39,4.08,5.26,5.62.56.46,9.4,5.46,5.62,4.87-5.18-.81-13.15-5.66-17.33-8.88-1.05,1.16,6,6.88,6.85,8.06l7.66,3.22c-3.69.52-6.95-.74-10.23-2.26-3.55-1.65-5.73-4.32-9.13-5.79l10.49,11.28c-5.59-.83-11.03-2.63-15.32-6.45-.85.92,5.2,8.22,6.5,9.22.39.3,7.2,3.26,3.66,2.81-6.23-.79-11.34-4.79-15.81-8.8l3.24,6.03,6.43,6.06c-7.29-1.06-12.36-6.88-16.93-12.09l4.85,9.26,6.43,5.25-8.01-2.87-8.11-9.22c.55,6.27,3.85,11.7,8.06,16.12-6.49-1.79-12.69-8.64-13.72-15.31-1.35-.21-.87,1.95-.83,2.84.27,4.76,2.34,10.36,6.48,12.89-3.04.5-6.37-2.74-7.93-4.98l-4.97-9.14c1.36,5.93,2.03,12.33,6.45,16.93l-4.39-2.46-7.7-12.86,4.43,16.13-3.5-3.76-7.39-12.36c.17,4.03,2.03,7.7,2.4,11.71.08.92.67,4.42-.78,4.42l-7.26-15.32c.92,6.13,1.74,12.7,5.64,17.74l-5.52-4.56-5.77-12.37,2.4,20.16-6.23-16.75-1.82-2.61,3.21,20.17-2.79-4.06-5.27-16.1-.88,18.09-2.35,6.11c1.83-8.36-.17-15.91-.82-24.19l-3.42,11.49-4.63,9.09c-1.82.83-.43-1.18-.16-1.78,2.43-5.43,4.61-11.05,4.18-17.18l-6.47,10.06-6.42,6.07,6.59-10.75,3.89-12.64c-7.15-.99-13.52-2.61-19.46-6.79-.96-.68-1.98-.03-1.51-2.09,28.05,7.87,60.01-1.39,85.79-13.02,27.75-12.52,56.3-32.31,69.14-60.74-57.73-30.18-135-8.26-170.67,45.52-.46-1.92,1.5-4.76,2.41-6.47,31.59-59.27,116.38-80.41,171.92-41.93,11.38-.86,21.96-4.3,32.6-8.06l-18.58,8.43-9.65,2.06,6.84.79c6.73-.68,11.93-2.2,18.13-4.46.76-.28,2.63-1.06,2.45.43-8.97,3.43-18.41,7.44-28.22,7.28-.07,1.19,2.89,1.42,3.72,1.51,5.06.54,9.94.04,14.85-1.09,1.67-.39,5.5-3.21,6.43-1.24-7.81,2.46-15.95,6.41-24.19,6.47.09,1.14,3.63,1.42,4.53,1.5,6.63.63,8.88-.31,14.82-1.93.82-.22,2.56-1.15,2.42.4-8.56,3.18-17.52,4.83-26.61,5.67l10.04,1.64,14.96-1.64-9.01,3.48-15.18,2.17c.14,1.17,3.53,1.37,4.53,1.5,5.55.74,10.96.46,16.43-.7.19,1.16-1.4,1.09-2.24,1.36-7.8,2.52-16.17,3.82-24.37,3.48l6.85,2.41h12.91c.46,0,3.47-2.14,3.63,0l-14.11,3.24h-12.5v.8c2.62-.67,6.54,2.43,8.47,2.43h12.1c.54,0,4.08-2.24,4.43,0l-14.92,2.43h-13.71c-.33,0-3.26-2.86-1.21.41,6.48,2.75,13.07,4.22,20.17,3.64.05.75-4.2,1.61-4.43,1.61-5.16,0-12.08.6-16.94,0Z"/>
  <path class="st0" d="M144.44,499.03c4.68-6.69,12.89-15.87,22.07-11.19,12.57,6.4.51,35.54-5.97,43.84-16.86,21.6-42.55,16.06-35.48-13.29-2.7,3.98-10.23,4.92-12.86,6.89-1.01.76-5.1,7.99-6.88,10.06-6.54,7.58-17.66,15.13-26.25,6.06-15-15.85,5.28-56.02,27.02-55.31,16.7.54,14.17,23.03,8.5,33.1,5.6-1.23,9.73-5.52,13.07-9.91,6.28-15.41,11.3-35.55,19.56-49.82,4.55-7.87,12.72-1.07,11.71,6.03-.51,3.6-7.81,16.22-9.79,20.9-1.74,4.1-3.49,8.35-4.69,12.65ZM104.68,493.55c-8.78,1.99-23.19,35.11-18.24,42.91,4.65,7.33,18.84-7.61,19.7-12.36.28-1.54-1.73-3.42-2.01-5.37-1.14-7.99,7.88-14.54,7.3-20.92-.33-3.64-3.29-5.05-6.75-4.26ZM159.57,494.39c-1.75-1.75-4.45-.88-6.23.25-7.71,4.92-16.61,23.98-18.8,32.82-3.7,14.93,8.43,7.59,13.9,1,4.24-5.09,16.45-28.73,11.12-34.07Z"/>
  <path class="st0" d="M71.84,478.86c-1.13-1.28,4.95-15.3-4.49-16.89-7.76-1.31-13.58,1.78-16.92,8.8-11.14,23.34,25.8,24.88,17.78,53.27-4.93,17.47-26.45,26.16-42.91,20.32-17.33-6.15-13.1-28.92,4.59-29.18-20.06,28.39,25.78,31.65,25.06,5.23-.45-16.48-19.65-20.85-21.62-34.09-3.08-20.71,19.62-36.17,38.49-29.62,12.65,4.39,14.29,19.33.02,22.16Z"/>
  <path class="st0" d="M188.81,515.16l11.1-18.33c2.06-2.86,7.14-9.81,10.45-10.55,5.93-1.33,10.72,5.04,10.63,10.65-.08,4.42-5.2,18.91-10.78,12.56-4.15-4.73-.32-10.04,1.18-14.87l-1.89-1.14c-4.29.37-14.41,17.78-16.8,21.95-5.19,9.05-10.32,18.41-12.35,28.79-3.77,2.83-9.48-2.35-10.06-6.12-.9-5.81,5.09-22.61,7.43-28.78,1.32-3.47,8.4-20.41,10.33-21.95,2.45-1.96,7.29-.05,8.73,2.48,3.57,6.3-7.25,18.48-7.96,25.32Z"/>
  <path class="st0" d="M159.76,565.18c8.47-1.45,9.56,9.83,15.72,12.92.79,0,8.12-11.97,9.45-12.74,1.2-.69,3.95.08,5.48-.18v28.23h-6.46s.81-17.74.81-17.74c-1.54-.38-1.55.56-2.27,1.35-1.97,2.16-5.77,9.64-8.55,9.19-.7-.11-6.72-10.37-8.53-11.35v18.55h-5.65v-28.23Z"/>
  <path class="st0" d="M116.2,564.38v29.04l-5.48-.18-13.88-18.79c-2.01-1.07,0,2.27,0,2.43v16.54h-5.65v-28.23l5.48.18,13.87,18.37c.14-2.07-.75-3.97-.83-6.01-.09-2.37-.61-12.78,1.22-13.1.91-.16,3.55.97,5.27-.24Z"/>
  <path class="st0" d="M220.27,593.42v-29.04h12.5c1.58,0,7.36,2.1,8.88,3.22,6.58,4.87,6.02,18.92-.94,23.27-1.01.63-5.51,2.55-6.32,2.55h-14.12ZM225.91,588.58c19.73,3.6,19.55-23.28,0-18.55v18.55Z"/>
  <path class="st0" d="M503.01,565.18c8.26,1.64,8.37,16.32-1.21,17.34,2.52,2.8,4.36,7.33,8.83,6.9l.04,4.81c-5.14-.02-8.01-1.56-11.27-5.26-1.96-2.23-3.1-6.48-6.47-6.84v11.29h-6.45c1.77-9.24.34-18.91,0-28.23,4.88.66,11.99-.9,16.54,0ZM502.41,577.09c4.86-4.84-4.83-9.98-9.13-7.11l-.36,8.12c2.39-.22,7.8.68,9.49-1Z"/>
  <path class="st0" d="M324.98,564.56c18.85-.99,20.48,29.7.56,29.72-18.04.02-19.27-28.74-.56-29.72ZM323.29,570.2c-8.7,1.98-6.86,20.03,3.67,19.02s10.04-22.15-3.67-19.02Z"/>
  <path class="st0" d="M286.41,564.38c6.8,2.05,20.4-2.18,21.73,7.72.87,6.47-1.76,8.27-7.2,10.43,1.65,1.6,3.26,4.96,5.19,6.1,2.4,1.43,6.32.05,2.35,5.54-8.32.36-10.08-7.48-15.21-12.02-2.02-.04-.97,9.5-1.21,11.28h-5.65v-29.05ZM301.54,577.09c4.86-4.84-4.83-9.98-9.13-7.11l-.36,8.12c2.39-.22,7.8.68,9.49-1Z"/>
  <path class="st0" d="M269.07,565.18c.23-.03.91-1.21,1.2-.81v5.64s-13.72-.42-13.72-.42v6.88h12.11v5.65c-2.07-1.08-11.56-1.47-12.55-.02,1,2.31-.9,5.02.86,6.48h13.31v4.84h-20.17v-28.23c5.93-.58,13.21.79,18.96,0Z"/>
  <path class="st0" d="M87.97,593.41l-6.49-.36-2.3-5.58-10.87-.39-3.06,6.21-5.51.13,10.45-27.86,6.89.43,10.89,27.42ZM77.47,582.12l-3.62-10.48-4.44,10.48h8.06Z"/>
  <path class="st0" d="M136.24,565.32l11.42,28.09-6.48-.37-2.9-5.97c-7.22-.07-11.62-2.35-13.33,6.21l-5.51.13,10.07-27.44,6.74-.65ZM133.94,571.63c-2.23-.32-1.23.26-1.61,1.21-1.19,2.97-2.03,6.29-3.22,9.28,1.58-.7,7.94,1.4,8.04-.39l-3.21-10.1Z"/>
  <path class="st0" d="M514.71,564.38c6.61,1.36,13.51,1.03,20.16,0v5.65s-13.76-.45-13.76-.45l-.76,6.91h12.91v5.64s-12.91-.81-12.91-.81v7.26h14.52v4.84h-20.17v-29.04Z"/>
  <path class="st0" d="M409.84,564.38c6.41,1.29,13.78,1.28,20.16,0v5.64s-13.76-.45-13.76-.45l-.76,6.91h12.91v5.64s-12.15-.45-12.15-.45l-.76,6.91h14.52v4.84h-20.17v-29.04Z"/>
  <path class="st0" d="M213.41,565.18c.35-.04,1.11-1.11,2.01-.8v5.64s-12.95-.45-12.95-.45l-.76,6.91h12.1v5.64c-2.25-.72-10.6-1.7-11.75-.05l-.35,6.51h13.71v4.84h-19.36v-29.04c.59-.21.96.81,1.21.81,4.96,0,11.43.55,16.13,0Z"/>
  <path class="st0" d="M444.54,574.86l1.65-.5c2.63-5.08,5.06-11.61,12.04-9.98l-9.59,14.8,10.4,14.23-7.1-.16c-1.88-3.04-3.65-6.29-5.62-9.27-.31-.46.12-1.53-1.39-1.05-.58.18-5.26,9.11-6.87,10.08s-4.55.19-6.45.4l10.28-14.1-9.47-14.93c1.7,1.07,4.96,0,6.08.72,1.8,1.14,5.37,7.47,6.03,9.76Z"/>
  <path class="st0" d="M476.39,565.18c6.64,1.18,9.59,10.68,4.04,15.33-4.06,3.4-7.81,1.95-12.56,2.77l-.75,10.14h-5.65v-28.24c4.51.56,10.65-.76,14.92,0ZM476.61,571.01l-8.74-1.45-.76,8.53c5.99.31,12.92,1.02,9.49-7.08Z"/>
  <path class="st0" d="M556.57,565.27l.08,5.56c-2.68-1.99-12.64-3.07-12.13,1.98s13.15,2.37,13.8,11.34c.77,10.61-12.98,10.37-20.13,8.37l-.08-5.56c3.22,1.2,13.28,3.81,13.74-1.26.53-5.84-14.25-3.07-13.81-12.85.39-8.51,12.16-9.79,18.52-7.59Z"/>
  <path class="st0" d="M579.14,565.3l.1,5.53c-2.65-1.92-11.75-2.91-12.15,1.23-.56,5.87,14.11,3,13.72,12.82-.4,9.85-13.1,9.52-20.03,7.65l-.08-5.56c3.21,1.2,13.3,3.8,13.75-1.26.51-5.85-13.18-3.42-13.8-12.07-.68-9.51,11.7-10.78,18.49-8.34Z"/>
  <path class="st0" d="M360.54,565.27l.08,5.56c-2.61-1.9-10.96-2.82-11.34,1.23-.56,5.96,13.81,3.52,13.82,12.89,0,9.45-13.66,9.82-20.1,7.55l-.1-5.53c2.97,1.79,13.31,3.43,13.74-1.25.53-5.84-14.25-3.07-13.81-12.85.37-8.16,11.41-9.85,17.72-7.59Z"/>
  <path class="st0" d="M279.96,593.42h-5.65v-29.04l5.15.1,1.12,1.11c.03.33-.62.61-.62.81v27.02Z"/>
  <rect class="st0" x="384.03" y="562.76" width="4.03" height="35.49"/>
</svg>